<svg xmlns="http://www.w3.org/2000/svg" xmlns:xlink="http://www.w3.org/1999/xlink" width="1920" height="1080" viewBox="0 0 1920 1080">
  <defs>
    <clipPath id="clip-path">
      <rect id="Rectangle_7" data-name="Rectangle 7" width="1920" height="1080" fill="#fff"/>
    </clipPath>
    <linearGradient id="linear-gradient" x1="0.5" y1="-0.124" x2="0.5" y2="0.876" gradientUnits="objectBoundingBox">
      <stop offset="0" stop-color="#8fc73e"/>
      <stop offset="1" stop-color="#6b9325"/>
    </linearGradient>
    <linearGradient id="linear-gradient-2" x1="1.255" y1="0.5" x2="0.255" y2="0.5" xlink:href="#linear-gradient"/>
  </defs>
  <g id="Mask_Group_1" data-name="Mask Group 1" clip-path="url(#clip-path)">
    <g id="Group_82" data-name="Group 82" transform="translate(0 -4)">
      <g id="Group_34" data-name="Group 34" transform="translate(-609.25 -204.427)">
        <path id="Path_26" data-name="Path 26" d="M3501.216,1458.09v-72.363l-62.709-36.26-62.709,36.26v72.363l62.709,36.181ZM2478.638,278.7l-10.91-6.279,12.086,4.16,62.709-36.181V166.623l65.143-37.594,63.886,36.888,63.886-36.888,63.965,36.888,63.887-36.888,63.886,36.888,62.71-36.181V57.294L2971.6,46.7l19.543,8.476,41.519-23.938-40.341,26.057v72.441l62.709,36.181,63.887-36.888,63.965,36.888,62.631-36.181V57.294l-63.887-36.888V0l2.433,18.993,62.709,36.181,12.087-4.16-10.91,6.279v72.441l62.709,36.181,62.709-36.181V57.294l2.433,72.441,62.709,36.181,63.887-36.888,65.142,37.594V240.4l63.887,36.888v75.188l-63.887,36.888V461.8l63.887,36.888v75.188l-63.887,36.888V683.21l63.887,36.888v75.188l-63.887,36.888v72.441l63.887,36.888v75.188l-63.887,36.888v72.441l63.887,36.888V1238.1l-63.887,36.888v72.441l63.887,36.888V1459.5L3566.28,1497.1l-63.886-36.888-63.887,36.888-63.965-36.888-63.887,36.888-63.887-36.888-63.886,36.888-63.965-36.888L3055.03,1497.1l-63.886-36.888-63.965,36.888-63.886-36.888-63.887,36.888-63.965-36.888-63.886,36.888-63.886-36.888-63.887,36.888-65.142-37.594v-75.189l63.886-36.888v-72.441l-63.886-36.888v-75.188l63.886-36.888V1053.58l-63.886-36.888V942.916l-62.709-36.181-12.087,4.16,10.831-6.279V832.174l-18.287-10.517,19.543,8.476,41.6-24.016-40.42,26.057v72.441l62.709,36.181,62.709-36.181V832.174l-63.886-36.888V720.1l63.886-36.888V610.768l-63.886-36.888V500.1l-62.709-36.182-12.087,4.16,10.831-6.279V389.441l-18.287-10.6,19.543,8.476,41.6-24.016-40.42,26.057V461.8l62.709,36.181,62.709-36.181V389.363l-62.709-36.181-19.542,8.476,18.365-10.517Zm2.433,72.441,62.709,36.181,62.631-36.181V278.7l-62.631-36.181L2481.071,278.7Zm893.47-219.365-62.631,36.26V240.4l62.631,36.181,62.709-36.181V168.036Zm-127.773,0-62.709,36.26V240.4l62.709,36.181,62.71-36.181V168.036ZM2286.9,221.406l2.433,18.993,62.709,36.181,12.087-4.16L2353.22,278.7v72.441l18.287,10.517-19.464-8.476-41.6,24.016,40.342-26.057V278.7L2286.9,241.812Zm129.029,463.923,12.087,4.16-10.91-6.279V610.768l18.366-10.517-19.543,8.476-41.6-24.016,40.341,26.057V683.21L2350.787,720.1ZM3501.216,351.141V278.7l-62.709-36.181L3375.8,278.7v72.441l54.625,31.551,8.084,4.631,8.005-4.631ZM2607.667,276.58l62.709-36.181V168.036l-62.709-36.26-62.709,36.26V240.4Zm127.773,0L2798.15,240.4V168.036l-62.709-36.26-62.63,36.26V240.4Zm127.852,0L2926,240.4V168.036l-62.709-36.26-62.709,36.26V240.4Zm127.852,0,62.631-36.181V168.036l-62.631-36.26-62.709,36.26V240.4Zm127.773,0,62.709-36.181V168.036l-62.709-36.26-62.709,36.26V240.4Zm383.477,0L3565.1,240.4V168.036l-62.708-36.26-62.71,36.26V240.4ZM2679.559,382.692l54.7-31.551V278.7l-62.709-36.181L2608.845,278.7v72.441l54.7,31.551,8.005,4.631Zm127.851,0,54.7-31.551V278.7l-62.709-36.181L2736.7,278.7v72.441l54.625,31.551,8.084,4.631Zm127.852,0,54.625-31.551V278.7l-62.71-36.181L2864.548,278.7v72.441l54.625,31.551,8.005,4.631Zm127.773,0,54.7-31.551V278.7l-62.709-36.181L2992.321,278.7v72.441l54.7,31.551,8.005,4.631Zm127.852,0,54.626-31.551V278.7l-62.631-36.181L3120.173,278.7v72.441l54.626,31.551,8.084,4.631Zm127.773,0,54.7-31.551V278.7l-62.709-36.181L3247.946,278.7v72.441l54.7,31.551,8.005,4.631Zm247.619,4.631,62.709-36.181V278.7l-62.709-36.181L3503.649,278.7v72.441l56.038,32.336Zm-65.063,185.146V500.1l-62.709-36.182L3375.8,500.1v72.363l54.625,31.629,8.084,4.631,8.005-4.631ZM3437.251,461.8V389.441l-62.709-36.26-62.631,36.26V461.8l62.631,36.181Zm-829.584,36.181,62.709-36.181V389.441l-62.709-36.26-62.709,36.26V461.8Zm127.773,0L2798.15,461.8V389.441l-62.709-36.26-62.63,36.26V461.8Zm127.852,0L2926,461.8V389.441l-62.709-36.26-62.709,36.26V461.8Zm127.852,0,62.631-36.181V389.441l-62.631-36.26-62.709,36.26V461.8Zm127.773,0,62.709-36.181V389.441l-62.709-36.26-62.709,36.26V461.8Zm127.851,0,62.71-36.181V389.441l-62.71-36.26-62.709,36.26V461.8Zm255.625,0L3565.1,461.8V389.441l-62.708-36.26-62.71,36.26V461.8ZM2543.781,608.728l62.631-36.26V500.1l-62.631-36.182L2481.071,500.1v72.363Zm135.779-4.631,54.7-31.629V500.1l-62.709-36.182L2608.845,500.1v72.363l54.7,31.629,8.005,4.631Zm127.851,0,54.7-31.629V500.1l-62.709-36.182L2736.7,500.1v72.363l54.625,31.629,8.084,4.631Zm127.852,0,54.625-31.629V500.1l-62.71-36.182L2864.548,500.1v72.363l54.625,31.629,8.005,4.631Zm127.773,0,54.7-31.629V500.1l-62.709-36.182L2992.321,500.1v72.363l54.7,31.629,8.005,4.631Zm127.852,0,54.626-31.629V500.1l-62.631-36.182L3120.173,500.1v72.363L3174.8,604.1l8.084,4.631Zm127.773,0,54.7-31.629V500.1l-62.709-36.182L3247.946,500.1v72.363l54.7,31.629,8.005,4.631Zm247.619,4.631,62.709-36.26V500.1l-62.709-36.182L3503.649,500.1v72.363l56.038,32.414Zm-65.063,185.146V721.51l-62.709-36.182L3375.8,721.51v72.363l54.625,31.551,8.084,4.709,8.005-4.709ZM3437.251,683.21V610.768l-62.709-36.182-62.631,36.182V683.21l62.631,36.181Zm-829.584,36.181,62.709-36.181V610.768l-62.709-36.182-62.709,36.182V683.21Zm127.773,0,62.709-36.181V610.768l-62.709-36.182-62.63,36.182V683.21Zm127.852,0L2926,683.21V610.768l-62.709-36.182-62.709,36.182V683.21Zm127.852,0,62.631-36.181V610.768l-62.631-36.182-62.709,36.182V683.21Zm127.773,0,62.709-36.181V610.768l-62.709-36.182-62.709,36.182V683.21Zm127.851,0,62.71-36.181V610.768l-62.71-36.182-62.709,36.182V683.21Zm255.625,0L3565.1,683.21V610.768l-62.708-36.182-62.71,36.182V683.21ZM2543.781,830.133l62.631-36.26V721.51l-62.631-36.182-62.709,36.182v72.363Zm135.779-4.709,54.7-31.551V721.51l-62.709-36.182-62.709,36.182v72.363l54.7,31.551,8.005,4.709Zm127.851,0,54.7-31.551V721.51l-62.709-36.182L2736.7,721.51v72.363l54.625,31.551,8.084,4.709Zm127.852,0,54.625-31.551V721.51l-62.71-36.182-62.631,36.182v72.363l54.625,31.551,8.005,4.709Zm127.773,0,54.7-31.551V721.51l-62.709-36.182-62.709,36.182v72.363l54.7,31.551,8.005,4.709Zm127.852,0,54.626-31.551V721.51l-62.631-36.182-62.709,36.182v72.363l54.626,31.551,8.084,4.709Zm127.773,0,54.7-31.551V721.51l-62.709-36.182-62.709,36.182v72.363l54.7,31.551,8.005,4.709Zm247.619,4.709,62.709-36.26V721.51l-62.709-36.182-62.631,36.182v72.363l56.038,32.414Zm-65.063,185.146V942.916l-62.709-36.181L3375.8,942.916v72.363l54.625,31.551,8.084,4.631,8.005-4.631Zm-63.965-110.663V832.174l-62.709-36.182-62.631,36.182v72.441l62.631,36.181ZM2607.667,940.8l62.709-36.181V832.174l-62.709-36.182-62.709,36.182v72.441Zm127.773,0,62.709-36.181V832.174l-62.709-36.182-62.63,36.182v72.441Zm127.852,0L2926,904.615V832.174l-62.709-36.182-62.709,36.182v72.441Zm127.852,0,62.631-36.181V832.174l-62.631-36.182-62.709,36.182v72.441Zm127.773,0,62.709-36.181V832.174l-62.709-36.182-62.709,36.182v72.441Zm127.851,0,62.71-36.181V832.174l-62.71-36.182-62.709,36.182v72.441Zm255.625,0,62.708-36.181V832.174l-62.708-36.182-62.71,36.182v72.441ZM2543.781,1051.46l62.631-36.182V942.916l-62.631-36.181-62.709,36.181v72.363Zm135.779-4.631,54.7-31.551V942.916l-62.709-36.181-62.709,36.181v72.363l54.7,31.551,8.005,4.631Zm127.851,0,54.7-31.551V942.916l-62.709-36.181L2736.7,942.916v72.363l54.625,31.551,8.084,4.631Zm127.852,0,54.625-31.551V942.916l-62.71-36.181-62.631,36.181v72.363l54.625,31.551,8.005,4.631Zm127.773,0,54.7-31.551V942.916l-62.709-36.181-62.709,36.181v72.363l54.7,31.551,8.005,4.631Zm127.852,0,54.626-31.551V942.916l-62.631-36.181-62.709,36.181v72.363l54.626,31.551,8.084,4.631Zm127.773,0,54.7-31.551V942.916l-62.709-36.181-62.709,36.181v72.363l54.7,31.551,8.005,4.631Zm247.619,4.631,62.709-36.182V942.916l-62.709-36.181-62.631,36.181v72.363l56.038,32.336Zm-65.063,185.224v-72.363l-62.709-36.26-62.709,36.26v72.363l54.625,31.551,8.084,4.631,8.005-4.631Zm-63.965-110.664V1053.58l-62.709-36.182-62.631,36.182v72.441l62.631,36.182ZM2607.667,1162.2l62.709-36.182V1053.58l-62.709-36.182-62.709,36.182v72.441Zm127.773,0,62.709-36.182V1053.58L2735.44,1017.4l-62.63,36.182v72.441Zm127.852,0L2926,1126.021V1053.58l-62.709-36.182-62.709,36.182v72.441Zm127.852,0,62.631-36.182V1053.58l-62.631-36.182-62.709,36.182v72.441Zm127.773,0,62.709-36.182V1053.58l-62.709-36.182-62.709,36.182v72.441Zm127.851,0,62.71-36.182V1053.58l-62.71-36.182-62.709,36.182v72.441Zm255.625,0,62.708-36.182V1053.58l-62.708-36.182-62.71,36.182v72.441Zm-958.613,110.663,62.631-36.182v-72.363l-62.631-36.26-62.709,36.26v72.363Zm135.779-4.631,54.7-31.551v-72.363l-62.709-36.26-62.709,36.26v72.363l54.7,31.551,8.005,4.631Zm127.851,0,54.7-31.551v-72.363l-62.709-36.26-62.709,36.26v72.363l54.625,31.551,8.084,4.631Zm127.852,0,54.625-31.551v-72.363l-62.71-36.26-62.631,36.26v72.363l54.625,31.551,8.005,4.631Zm127.773,0,54.7-31.551v-72.363l-62.709-36.26-62.709,36.26v72.363l54.7,31.551,8.005,4.631Zm127.852,0,54.626-31.551v-72.363l-62.631-36.26-62.709,36.26v72.363l54.626,31.551,8.084,4.631Zm127.773,0,54.7-31.551v-72.363l-62.709-36.26-62.709,36.26v72.363l54.7,31.551,8.005,4.631Zm247.619,4.631,62.709-36.182v-72.363l-62.709-36.26-62.631,36.26v72.363l56.038,32.336Zm-129.029,74.561v-72.441l-62.709-36.182-62.631,36.182v72.441l62.631,36.182Zm-829.584,36.182,62.709-36.182v-72.441l-62.709-36.182-62.709,36.182v72.441Zm127.773,0,62.709-36.182v-72.441L2735.44,1238.8l-62.63,36.182v72.441Zm127.852,0L2926,1347.427v-72.441l-62.709-36.182-62.709,36.182v72.441Zm127.852,0,62.631-36.182v-72.441l-62.631-36.182-62.709,36.182v72.441Zm127.773,0,62.709-36.182v-72.441l-62.709-36.182-62.709,36.182v72.441Zm127.851,0,62.71-36.182v-72.441l-62.71-36.182-62.709,36.182v72.441Zm255.625,0,62.708-36.182v-72.441l-62.708-36.182-62.71,36.182v72.441Zm-958.613,110.664,62.631-36.181v-72.363l-62.631-36.26-62.709,36.26v72.363Zm127.773,0,62.709-36.181v-72.363l-62.709-36.26-62.709,36.26v72.363Zm127.852,0,62.709-36.181v-72.363l-62.709-36.26-62.709,36.26v72.363Zm127.773,0,62.71-36.181v-72.363l-62.71-36.26-62.631,36.26v72.363Zm127.852,0,62.709-36.181v-72.363l-62.709-36.26-62.709,36.26v72.363Zm127.852,0,62.631-36.181v-72.363l-62.631-36.26-62.709,36.26v72.363Zm127.773,0,62.709-36.181v-72.363l-62.709-36.26-62.709,36.26v72.363Zm255.625,0,62.709-36.181v-72.363l-62.709-36.26-62.631,36.26v72.363Z" transform="translate(-492.032 0)" fill="url(#linear-gradient)"/>
        <path id="Path_27" data-name="Path 27" d="M130.285,39.007V111.37l62.709,36.26,62.631-36.26V39.007L192.994,2.825ZM1152.863,1218.4l10.831,6.279-12.087-4.16L1088.9,1256.7v73.776l-65.142,37.594-63.887-36.888-63.887,36.888L832.1,1331.18l-63.965,36.888-63.887-36.888-62.709,36.182V1439.8l18.287,10.517-19.464-8.4-41.6,23.938L639.1,1439.8v-72.441l-62.709-36.182-63.887,36.888-63.887-36.888-62.709,36.182V1439.8l63.887,36.888V1497.1l-2.433-18.993-62.709-36.26-12.087,4.238,10.909-6.279v-72.441l-62.709-36.182-62.709,36.182V1439.8l-2.433-72.441-62.631-36.182-63.965,36.888-65.142-37.594V1256.7L0,1219.81v-75.188l63.887-36.888v-72.441L0,998.4V923.216l63.887-36.888V813.887L0,777V701.811l63.887-36.888V592.482L0,555.594V480.405l63.887-36.888V371.076L0,334.188V259l63.887-36.888V149.67L0,112.783V37.594L65.142,0l63.887,36.888L192.994,0l63.887,36.888L320.767,0l63.887,36.888L448.619,0l63.887,36.888L576.392,0l63.965,36.888L704.244,0,768.13,36.888,832.1,0l63.887,36.888L959.868,0l63.887,36.888L1087.72,0l65.142,37.594v75.188L1088.9,149.67v72.441L1152.863,259v75.188L1088.9,371.076v72.441l63.965,36.888v73.776l62.631,36.182,12.165-4.16-10.909,6.279v72.441l18.287,10.517-19.543-8.476-41.6,24.016,40.42-26.057V592.482L1151.607,556.3,1088.9,592.482v72.441l63.965,36.888V777L1088.9,813.887v72.442l63.965,36.888v73.776l62.631,36.181,12.165-4.16-10.909,6.279v72.363l18.287,10.6-19.543-8.476-41.6,24.016,40.42-26.057v-72.441l-62.709-36.181-62.709,36.181v72.441l62.709,36.182,19.543-8.476-18.287,10.517Zm-2.433-72.442-62.709-36.182-62.709,36.182V1218.4l62.709,36.181,62.709-36.181ZM256.881,1365.243l62.709-36.182V1256.7l-62.709-36.182L194.171,1256.7v72.363Zm127.773,0,62.709-36.182V1256.7l-62.709-36.182L322.023,1256.7v72.363Zm959.868-89.551-2.433-18.993-62.631-36.182-12.165,4.16,10.91-6.279v-72.442l-18.287-10.517,19.543,8.476,41.519-24.016-40.341,26.057V1218.4l63.887,36.888ZM1215.493,811.768l-12.087-4.16,10.909,6.279v72.442l-18.287,10.517,19.464-8.476,41.6,24.016-40.341-26.057V813.887L1280.636,777ZM130.285,1145.956V1218.4l62.709,36.181,62.631-36.181v-72.442L201,1114.405l-8.005-4.631-8.084,4.631Zm893.47,74.56L961.124,1256.7v72.363l62.631,36.26,62.709-36.26V1256.7Zm-127.773,0L833.273,1256.7v72.363l62.709,36.26,62.709-36.26V1256.7Zm-127.852,0L705.421,1256.7v72.363l62.709,36.26,62.709-36.26V1256.7Zm-127.773,0L577.648,1256.7v72.363l62.709,36.26,62.631-36.26V1256.7Zm-127.852,0L449.8,1256.7v72.363l62.709,36.26,62.709-36.26V1256.7Zm-383.477,0L66.32,1256.7v72.363l62.709,36.26,62.709-36.26V1256.7Zm822.834-106.111-54.7,31.551V1218.4l62.709,36.181,62.709-36.181v-72.442l-54.7-31.551-8.005-4.631Zm-127.852,0-54.625,31.551V1218.4l62.709,36.181,62.631-36.181v-72.442L840.1,1114.405l-8.006-4.631Zm-127.773,0-54.7,31.551V1218.4l62.709,36.181,62.709-36.181v-72.442l-54.7-31.551-8.005-4.631Zm-127.852,0-54.625,31.551V1218.4l62.631,36.181L639.1,1218.4v-72.442l-54.625-31.551-8.084-4.631Zm-127.852,0-54.625,31.551V1218.4l62.709,36.181,62.709-36.181v-72.442l-54.7-31.551-8.005-4.631Zm-127.773,0-54.7,31.551V1218.4l62.709,36.181,62.709-36.181v-72.442l-54.7-31.551-8.005-4.631Zm-247.619-4.631L2.433,1145.956V1218.4l62.709,36.181,62.709-36.181v-72.442L71.814,1113.62Zm65.142-185.146v72.363l62.709,36.181,62.631-36.181V924.629L201,893l-8.005-4.631L184.91,893Zm63.887,110.664v72.363l62.709,36.26,62.709-36.26v-72.363l-62.709-36.181Zm829.584-36.181-62.631,36.181v72.363l62.631,36.26,62.709-36.26v-72.363Zm-127.773,0-62.709,36.181v72.363l62.709,36.26,62.709-36.26v-72.363Zm-127.852,0-62.709,36.181v72.363l62.709,36.26,62.709-36.26v-72.363Zm-127.773,0-62.709,36.181v72.363l62.709,36.26,62.631-36.26v-72.363Zm-127.852,0L449.8,1035.293v72.363l62.709,36.26,62.709-36.26v-72.363Zm-127.852,0-62.631,36.181v72.363l62.631,36.26,62.709-36.26v-72.363Zm-255.625,0L66.32,1035.293v72.363l62.709,36.26,62.709-36.26v-72.363ZM1087.72,888.369l-62.709,36.26v72.363l62.709,36.181,62.709-36.181V924.629ZM951.863,893l-54.7,31.629v72.363l62.709,36.181,62.709-36.181V924.629L967.874,893l-8.005-4.631Zm-127.852,0-54.625,31.629v72.363l62.709,36.181,62.631-36.181V924.629L840.1,893l-8.006-4.631Zm-127.773,0-54.7,31.629v72.363l62.709,36.181,62.709-36.181V924.629L712.249,893l-8.005-4.631Zm-127.852,0-54.625,31.629v72.363l62.631,36.181L639.1,996.992V924.629L584.476,893l-8.084-4.631Zm-127.852,0L385.91,924.629v72.363l62.709,36.181,62.709-36.181V924.629L456.624,893l-8.005-4.631Zm-127.773,0-54.7,31.629v72.363l62.709,36.181,62.709-36.181V924.629L328.773,893l-8.005-4.631ZM65.142,888.369,2.433,924.629v72.363l62.709,36.181,62.709-36.181V924.629L71.814,892.215Zm65.142-185.146v72.363l62.709,36.181,62.631-36.181V703.224L201,671.594l-8.005-4.631-8.084,4.631Zm63.887,110.663v72.442l62.709,36.182,62.709-36.182V813.887l-62.709-36.181Zm829.584-36.181-62.631,36.181v72.442l62.631,36.182,62.709-36.182V813.887Zm-127.773,0-62.709,36.181v72.442l62.709,36.182,62.709-36.182V813.887Zm-127.852,0-62.709,36.181v72.442L768.13,922.51l62.709-36.182V813.887Zm-127.773,0-62.709,36.181v72.442l62.709,36.182,62.631-36.182V813.887Zm-127.852,0L449.8,813.887v72.442l62.709,36.182,62.709-36.182V813.887Zm-127.852,0-62.631,36.181v72.442l62.631,36.182,62.709-36.182V813.887Zm-255.625,0L66.32,813.887v72.442l62.709,36.182,62.709-36.182V813.887ZM1087.72,666.964l-62.709,36.26v72.363l62.709,36.181,62.709-36.181V703.224Zm-135.857,4.631-54.7,31.629v72.363l62.709,36.181,62.709-36.181V703.224l-54.7-31.629-8.005-4.631Zm-127.852,0-54.625,31.629v72.363L832.1,811.768l62.631-36.181V703.224L840.1,671.594l-8.006-4.631Zm-127.773,0-54.7,31.629v72.363l62.709,36.181,62.709-36.181V703.224l-54.7-31.629-8.005-4.631Zm-127.852,0-54.625,31.629v72.363l62.631,36.181L639.1,775.586V703.224l-54.625-31.629-8.084-4.631Zm-127.852,0L385.91,703.224v72.363l62.709,36.181,62.709-36.181V703.224l-54.7-31.629-8.005-4.631Zm-127.773,0-54.7,31.629v72.363l62.709,36.181,62.709-36.181V703.224l-54.7-31.629-8.005-4.631ZM65.142,666.964,2.433,703.224v72.363l62.709,36.181,62.709-36.181V703.224L71.814,670.809Zm65.142-185.146v72.363l62.709,36.182,62.631-36.182V481.818L201,450.267l-8.005-4.631-8.084,4.631Zm63.887,110.664v72.441L256.881,701.1l62.709-36.181V592.482L256.881,556.3ZM1023.755,556.3l-62.631,36.182v72.441l62.631,36.181,62.709-36.181V592.482Zm-127.773,0-62.709,36.182v72.441L895.982,701.1l62.709-36.181V592.482Zm-127.852,0-62.709,36.182v72.441L768.13,701.1l62.709-36.181V592.482Zm-127.773,0-62.709,36.182v72.441L640.357,701.1l62.631-36.181V592.482Zm-127.852,0L449.8,592.482v72.441L512.505,701.1l62.709-36.181V592.482Zm-127.852,0-62.631,36.182v72.441L384.654,701.1l62.709-36.181V592.482Zm-255.625,0L66.32,592.482v72.441L129.029,701.1l62.709-36.181V592.482ZM1087.72,445.637l-62.709,36.182v72.363l62.709,36.182,62.709-36.182V481.818Zm-135.857,4.631-54.7,31.551v72.363l62.709,36.182,62.709-36.182V481.818l-54.7-31.551-8.005-4.631Zm-127.852,0-54.625,31.551v72.363L832.1,590.362l62.631-36.182V481.818L840.1,450.267l-8.006-4.631Zm-127.773,0-54.7,31.551v72.363l62.709,36.182,62.709-36.182V481.818l-54.7-31.551-8.005-4.631Zm-127.852,0-54.625,31.551v72.363l62.631,36.182L639.1,554.181V481.818l-54.625-31.551-8.084-4.631Zm-127.852,0L385.91,481.818v72.363l62.709,36.182,62.709-36.182V481.818l-54.7-31.551-8.005-4.631Zm-127.773,0-54.7,31.551v72.363l62.709,36.182,62.709-36.182V481.818l-54.7-31.551-8.005-4.631ZM65.142,445.637,2.433,481.818v72.363l62.709,36.182,62.709-36.182V481.818L71.814,449.4Zm65.142-185.224v72.363l62.709,36.26,62.631-36.26V260.412L201,228.862l-8.005-4.631-8.084,4.631Zm63.887,110.664v72.441L256.881,479.7l62.709-36.181V371.076l-62.709-36.181Zm829.584-36.181-62.631,36.181v72.441l62.631,36.181,62.709-36.181V371.076Zm-127.773,0-62.709,36.181v72.441L895.982,479.7l62.709-36.181V371.076Zm-127.852,0-62.709,36.181v72.441L768.13,479.7l62.709-36.181V371.076Zm-127.773,0-62.709,36.181v72.441L640.357,479.7l62.631-36.181V371.076Zm-127.852,0L449.8,371.076v72.441L512.505,479.7l62.709-36.181V371.076Zm-127.852,0-62.631,36.181v72.441L384.654,479.7l62.709-36.181V371.076Zm-255.625,0L66.32,371.076v72.441L129.029,479.7l62.709-36.181V371.076ZM1087.72,224.231l-62.709,36.181v72.363l62.709,36.26,62.709-36.26V260.412Zm-135.857,4.631-54.7,31.551v72.363l62.709,36.26,62.709-36.26V260.412l-54.7-31.551-8.005-4.631Zm-127.852,0-54.625,31.551v72.363l62.709,36.26,62.631-36.26V260.412L840.1,228.862l-8.006-4.631Zm-127.773,0-54.7,31.551v72.363l62.709,36.26,62.709-36.26V260.412l-54.7-31.551-8.005-4.631Zm-127.852,0-54.625,31.551v72.363l62.631,36.26,62.709-36.26V260.412l-54.625-31.551-8.084-4.631Zm-127.852,0L385.91,260.412v72.363l62.709,36.26,62.709-36.26V260.412l-54.7-31.551-8.005-4.631Zm-127.773,0-54.7,31.551v72.363l62.709,36.26,62.709-36.26V260.412l-54.7-31.551-8.005-4.631ZM65.142,224.231,2.433,260.412v72.363l62.709,36.26,62.709-36.26V260.412L71.814,228.077ZM194.171,149.67v72.441l62.709,36.182,62.709-36.182V149.67l-62.709-36.181Zm829.584-36.181L961.124,149.67v72.441l62.631,36.182,62.709-36.182V149.67Zm-127.773,0L833.273,149.67v72.441l62.709,36.182,62.709-36.182V149.67Zm-127.852,0L705.421,149.67v72.441l62.709,36.182,62.709-36.182V149.67Zm-127.773,0L577.648,149.67v72.441l62.709,36.182,62.631-36.182V149.67Zm-127.852,0L449.8,149.67v72.441l62.709,36.182,62.709-36.182V149.67Zm-127.852,0L322.023,149.67v72.441l62.631,36.182,62.709-36.182V149.67Zm-255.625,0L66.32,149.67v72.441l62.709,36.182,62.709-36.182V149.67ZM1087.72,2.825l-62.709,36.181V111.37l62.709,36.26,62.709-36.26V39.007Zm-127.852,0L897.159,39.007V111.37l62.709,36.26,62.709-36.26V39.007Zm-127.773,0L769.386,39.007V111.37L832.1,147.63l62.631-36.26V39.007Zm-127.852,0L641.534,39.007V111.37l62.709,36.26,62.709-36.26V39.007Zm-127.852,0L513.761,39.007V111.37l62.631,36.26L639.1,111.37V39.007Zm-127.773,0L385.91,39.007V111.37l62.709,36.26,62.709-36.26V39.007Zm-127.852,0L258.058,39.007V111.37l62.709,36.26,62.709-36.26V39.007Zm-255.625,0L2.433,39.007V111.37l62.709,36.26,62.709-36.26V39.007Z" transform="translate(0 0)" fill="url(#linear-gradient-2)"/>
      </g>
      <g id="Group_32" data-name="Group 32" transform="translate(-297.371 -384.747)">
        <g id="Group_31" data-name="Group 31" transform="translate(0 0)">
          <path id="Path_94" data-name="Path 94" d="M1168.363,776.918l6.646-12.85-15.191-28.421,3.8-36.9-2.532-23.167,6.71-21.775-4.3-13.482,7.089-13.546,13.926-9.495.57-42.979-13.356-.57L1108.04,494.42l-22.85-41.27-88.807,15.635-50.259,1.076-16.711,5.57L894.22,430.236l-62.538-90.959-4.114-43.739L875.8,266.674,871.37,239.9l23.99-7.279,78.743,89.5-77.1-99-17.28,1.139-2.216-.57-38.232-17.533-64.184-94.314L744.647,42.789,701.6,32.092,693.249,0H675.4l20.129,35.573,30.13,16.711,5.57,9.495L679.894,44.5,645.27,19.369,636.345,0H609l65.7,68.109,66.21,3.228,50.448,81.528,5.191,52.98-5.57,24.56,23.99,39.055-.253,19.243-22.281,10.571,21.774,31.4-.38,27.535,41.334,78.173,41.587,13.419,27.092,39.055,150.649-25.572,32.725,43.486,5.57,20.888,1.646,23.99,14.558,25.129,13.356,8.672,13.419,43.8-4.811,21.838-21.711,45.448,75.578,196.793ZM1153.8,724.444l-7.786-14.5-1.14-34.054,15.192-29.054,2.152,6.71-4.241,28.484,2.279,25.129-.949,20.192Zm-41.84-211.415,64.184,85.262-15.635,32.725L1145.7,584.3l-23.673-25.952Zm-314.4-350.164,64.057,103.429-42.853,20.445-2.152-24.56-13.1-20.319-6.393-25.446,3.861-23.737ZM819.719,338.58l71.59,103.3-20.255-4.114-19.812-12.533L818.9,360.165Z" transform="translate(-223.516)" fill="#8fc73e" fill-rule="evenodd"/>
          <path id="Path_95" data-name="Path 95" d="M3510.679,2613.223l-21.775-37.916,8.356-27.914,14.5-.57,8.039-53.929,17.344,32.915,3.924-2.785,49.689,55.259,44.372,19.559-41.27-23.167-.57-.886L3582.4,2554.8l-15.951-8.038-21.205-31.016-10.318-4.178-13.609-28.8,1.392-9.684-16.521-35.7,8.925-23.421-29.054-32.408-11.71,16.2-50.764-22.914-32.915,15.255-7.026-6.393-11.141-1.646-9.241-11.015-3.608.507-31.143-20.635-23.863-43.612-25.7,3.924L3241.6,2291.1l45.195,28.484,4.178-8.608,13.672,3.608,29.623,56.905,1.646,19.559-17.85-3.925,49.119,19.56,17.28-1.646,5.634,8.924,60.7,23.737,35.257,56.082-33.865-61.272-39.814-16.331-13.926-21.774,27.725-14.306,43.169,23.8,6.14,11.71,27.344,3.924,1.14,27.344,10,30.7-3.482,41.144-14.3-11.9,12.343,19.243-3.861,14.368-12.406,2.469-17.344,18.989,6.14,24.56,17.344,15.065,2.785,11.71Zm142.04-12.09,31.522,1.708,7.532,10.381h12.6l-18.736-15.381Zm-265.851-209.263-16.331,7.532-23.041-4.81-11.014-29.244-6.2-11.267,25.193,17.217,8.355,12.6,17.85.949Z" transform="translate(-1189.737 -840.883)" fill="#8fc73e" fill-rule="evenodd"/>
          <path id="Path_96" data-name="Path 96" d="M2222.9,459.1l-20.635,23.99-24.56,65.893-37.409,25.7-26.775,161.853-13.989-19.5,5.634-17.344-31.839-63.045-12.28-16.2-12.849-8.925-29.054,7.216-27.914-13.356-79.249-19.559-7.785-43.549,37.346-6.71,32.978,18.42,36.839-17.28,16.711-42.979,97.289-36.586,31.712-59.437-34.054,55.829-22.914,3.355-22.85,10.571H2037.06l-22.914,17.913-5.57,41.27-25.7,15.635-42.41-17.28-51.4,12.849-20.382-17.47-5.95-17.977L1805.2,487.014l-6.14,9.621-4.874-2.342-122.228,16.141-8.925,33.548-21.268,4.431-1.646-.57-17.85-3.861-43.549,30.953,106.024-28.99,30.193-29.054,75.894-7.406-12.406,19.369-20.952.886L1746.08,541.2l-22.091,1.9-19.812-6.14-28.484,22.914-20.382,2.215h26.269l25.129-21.774,21.775,6.456,25.952-2.532,8.355-12.28,20.952.253,13.482-23.357,9.241-.886,20.129,8.925h24.56l41.27,33.485,15.635,43.549,77.034,18.989,32.409,17.85,33.484-7.786,4.495,2.216,43.549,73.679-7.849,21.2,17.66,30.636-18.8,46.4,25.7-27.914,42.409,39.118,13.419,60.26v11.9l-11.584-13.039L2142.577,848l10.191-25.192-16.774-23.99,9.495,21.2-11.14,34.054,15.065,8.355,5.887,52.474.253-43.549,16.014,17.344v50.2l-21.205,42.473-3.354,138.432-15.951,17.977-7.343-23.041,3.418-19.749,14.432-29.37-9.495-61.969,6.709,54.563-16.711,31.459-3.354,27.914,8.039,25.129-5.444,6.14H2092l-32.092,41.27-71.463,11.2,8.292-22.851-74.375-60.26,59.374,57.411v36.839l-119.443,74.818-14.5,37.916-89.313-17.85-1.139-37.915-31.269-25.7-18.989-84.882,12.217,96.149,15.571,15.635,7.976,47.917-58.108,12.28-44.625-16.774-59.183-8.925-3.355-3.355-75.894-54.689-30.193-67.032L1431.3,1155.5l-22.281-54.689,45.764,32.408,31.269,52.474,17.85,7.786,13.419,45.764-13.419-65.83-32.409-27.914-22.281-37.979-29.054-11.2-30.13-22.281-29.054-84.882-1.076-43.549-20.635-35.637,15-62.6L1329.2,915.73l13.926,26.522,1.139,37.979,19.813,62.475,1.962,2.848,13.926,21.775,5,22.85,16.774,16.774,12.28,33.484-32.915-9.495-22.914-43.549,23.42,51.968,36.333,12.28,7.786,22.85,47.473,30.7,18.989,50.258,41.84,25.129,15.951,24.559,13.672-1.139,22.85,7.279,13.419,16.458,57.221.569,18.1,10.318,27.092-3.038-15.635,13.356,41.08,18.99-6.14,37.409L1609.42,1475.98l-5.57,29.56-16.774,10.634-3.355,75.324-49.689,47.474,56.4,45.195,8.355,16.2-9.495,18.989,11.773,12.849-35.194,40.131h22.344l23.42-42.916-4.431-37.979-6.71-11.71,1.076-18.989-40.194-31.839,12.85-17.28,16.2-1.139,10.064-28.99-.57-43.043,40.194,69.818-1.139,27.345,21.2,66.463,35.194,13.926,18.42,26.268-9.495,30.066h6.709l8.925-39.055-17.28-23.42-46.9-34.054-9.495-37.409,5.57-28.99L1636.195,1582l-18.42-21.2-16.711-45.828,9.938-12.28,5.634-21.711v-1.646l37.409-18.42-6.393,42.093-13.1,23.167v7.849l-.57,26.205,6.14-33.485V1525.1l14.5-23.483,7.849-46.84,37.915-29.624,27.914-4.431,9.495-22.914,2.785-19.559,17.913-35.13,1.013-23.8,66.526,9.811-1.139,15.635,40.764-17.85,2.848-9.748,44.752-9.811,16.774,1.709,22.281-4.494,10.064-13.926,26.269-19.559,28.421-6.14,40,14.622,5.064,46.207,15.635,9.495,12.28,29.624-9.495,58.614-80.894,53.55-5.634,31.269,197.109,40.764,11.14,32.915,46.334,11.2,30.13,86.971,35.383,6.266,41.65,28.421,4.494,22.344,45.827,35.13H2439l-61.969-30.066L2361.9,1713.22l-35.13-27.914-29.117-9.558-13.04-12.913-23.483-53.424,53.36,9.431,64.184,56.968,18.42,35.763,40.194,17.28,1.139,1.646,43.549,41.84h8.925l-.57-2.722-55.828-49.119,49.119,15.065,53.613,36.776h11.71l-73.109-45.194-79.312-30.7-19.5-35.13-40.194-30.13-18.736-21.395-56.588-11.9-8.039-10.064-24.433-9.178-24.56-2.785L2196.7,1541.3l2.785-10.064-50.828,2.785-73.109-16.774-15.065-10.571-25.129-1.139-9.938-40.7,65.766-41.333h14.5l-7.216-68.109-18.989-30.7-12.28-17.913-5.38-25.509,7.216,2.659,58.614-32.409-.57-35.7,20.825-13.8,2.026-12.47,22.344-31.269,4.494-58.614,28.864-22.914v-73.236l2.975-35,.506-56.4-13.926-5-14.115-15.888,2.215-24.306,18.42-10.064-23.99-12.849-8.355-40.764-39.118-34.624,24.053-18.42,42.979-18.926,25.129-36.9-14.938-44.688,41.714-56.335-29.814-115.329,24.813-35.953,26.775,1.139,34.624-75.957-44.688-77.034,23.99-43.676,97.352,8.609,87.478-77.666,2.469-53.17,20.382-14.052,9.811-34.877L2623.768,0h-21.2L2488.12,78.616l-11.014,40.574-19.559,11.33.569,47.6-49.309,48.17-17.28,5.633-24.56,12.913-77.6-3.481,16.2-39.055,57.031-20.572,20.572-50.765-3.925-52.6,42.03-37.726-15.824-20.888L2420.581,0H2408.3l-10.064,21.964,11.71,14.559-11.14,16.141L2397.1,53.8l-27.915,25.7,7.279,31.269-7.849,41.27-9.811,6.077-11.077,24.623L2300,197.869l-14.559,37.346-18.42,10.634-20.065,51.335,21.2,29.054,10.065,7.279,16.141,27.914L2290.5,386.56l-18.99,36.839-35.194,8.355ZM1870.84,1309.506l7.406-25,44.878-20.129,30.256-2.848,1.013-1.076,45.764-41.84,48.676,48.676-35.067-11.267-23.484,7.216-52.474,39.118-18.42-5.064Zm188.754-38.8-1.9-9.115-12.85-7.279-44.118-42.979,49.688-8.355,21.521,6.393,54.563-51.335,4.621-1.772,11.584,36.08-18.99,16.2-9.495,47.473-36.649,20.445Zm76.78-116.468,3.925-1.519,17.344-37.979-2.025-95.706,15.951-20.952,1.139-36.27,20.382-15.065-12.343-48.106,22.787,24.623-6.71,147.99-24.559,20.635-2.785,53.044-23.42,39.625ZM1805.2,457.707l-7.216,4.178-17.85-4.051-.57.127-11.457,6.013,13.926-9.052,14.685,3.924,6.836-4.621L1821.4,464.8Zm-126.026,58.044-11.014,30.13,15.382-5,24.939-30.573Zm186.159,1.772-18.1-15.445-19.559,8.355-24.5-11.837,3.418-6.013,52.791,10.887Zm248.7,227.936,12.723-61.082,14.558-39.371-4.748-27.091,9.178-25.382,2.786-17.6,36.586-25.952,15.635-31.522,19.812-8.1,15.382,56.652.254.823-3.355,38.8-31.712,40.384-1.772,14.622-25.7,13.1-13.672,24.306-32.092,21.458Zm-3.418,19.876,21.458-39.371,31.838-15.381,11.141-24.813,1.392-.57,32.978-19.243,6.646,25.952L2201,720.393l-12.28,3.292-10.571,12.28-.823.57-28.8,12.027-1.077.823-18.736,13.672L2123.4,759.7Z" transform="translate(-487.845)" fill="#8fc73e" fill-rule="evenodd"/>
          <path id="Path_97" data-name="Path 97" d="M1823.317,0,1818,71.653l27.788,12.406,25.319,94.314,41.776,11.647,15.635,52.474-24.56,102.732,35.7-113.873-24.56-60.323h-31.206l-21.268-62.538-1.076-24.56-34.624-21.2L1831.293,0Zm61.969,0-4.241,23.673.316,1.139,17.027,11.14-8.925,36.016,11.14-39.941-12.85-11.457L1895.6,0Z" transform="translate(-667.245)" fill="#8fc73e" fill-rule="evenodd"/>
          <path id="Path_98" data-name="Path 98" d="M2765.2,1573.584l64.754-20.129,25.129,5,13.926,21.774,28.864,2.912,14.685,28.358,35.763,25.129,15.065-7.786,92.1,30.13,32.915-17.85,28.484,9.495-29.813-15.445-27.661,16.521-18.42-.57-69.248-23.42-6.709-6.14-26.775,2.215-26.775-25.129-10.634-27.345-25.7,2.279-18.42-20.7-38.485-7.786-7.849,7.216Zm172.55-3.608,27.851-9.811,11.71,7.279,23.483,1.076,5.38,9.368,47.22-.7-39.181-3.925-6.2-10.887-23.99.569-16.71-8.925Z" transform="translate(-1014.888 -567.085)" fill="#8fc73e" fill-rule="evenodd"/>
          <path id="Path_99" data-name="Path 99" d="M788.438,1830.8,634.371,1979.3l-84.883-52.474-62.475-10.064-56.968,54.752-93.807-24.559-33.485,25.635-49.119,3.355-27.914-46.9L87.161,1967.207l-25.572,82.414H0v21.268L94,2051.9l21.774-82.92,96.909-16.394,53.233,43.486,50.259-1.139,30.13-25.7,107.163,18.99,52.474-61.4,53.613,18.989,85.959,55.829,24.56-18.989L679,1955.877l70.387-74.818Z" transform="translate(0 -671.943)" fill="#8fc73e" fill-rule="evenodd"/>
          <path id="Path_100" data-name="Path 100" d="M455.4,1522.867l75.894-10.064,58.614,27.408,1.139,30.067,75.388,12.28,34.054-17.85,60.26,14.5,6.393,21.521,37.726,6.963-31.839-8.356-9.495-26.268-58.614-18.42L655.8,1571.417l-55.259-8.355-5.064-26.839-63.614-35.13L509.52,1512.8Zm459.732,53.867-40.511,2.469-5.57,4.747-20.635,5.571,27.914-1.076,4.431-6.457Zm-60.576-68.995-28.484,13.672-33.231-13.925L761,1501.915l-10.571,7.786-20.951-.823,17.6-2.215,10.317-6.963,51.9,3.038,16.521,12.849,25.382-11.71,17.85,5.57Z" transform="translate(-167.142 -550.422)" fill="#8fc73e" fill-rule="evenodd"/>
        </g>
      </g>
    </g>
  </g>
</svg>
